<?xml version="1.0" encoding="utf-8"?>
<!-- Generator: Adobe Illustrator 16.0.0, SVG Export Plug-In . SVG Version: 6.00 Build 0)  -->
<!DOCTYPE svg PUBLIC "-//W3C//DTD SVG 1.1//EN" "http://www.w3.org/Graphics/SVG/1.1/DTD/svg11.dtd">
<svg version="1.1" id="Layer_1" xmlns="http://www.w3.org/2000/svg" xmlns:xlink="http://www.w3.org/1999/xlink" x="0px" y="0px"
	 width="714px" height="146.512px" viewBox="0 0 714 146.512" enable-background="new 0 0 714 146.512" xml:space="preserve">
<g enable-background="new    ">
	<path fill="#666666" d="M415.531,83.087c2.635,0,5.021,0.37,7.16,1.111c2.141,0.74,3.979,1.839,5.516,3.292
		c1.535,1.454,2.715,3.224,3.538,5.309c0.823,2.086,1.235,4.444,1.235,7.078s-0.412,4.993-1.235,7.078
		c-0.823,2.086-2.003,3.855-3.538,5.309c-1.537,1.454-3.375,2.551-5.516,3.292c-2.139,0.741-4.525,1.111-7.16,1.111h-20.493v25.185
		h-5.597V83.087H415.531z M414.297,111.894c3.896,0,7.05-0.988,9.465-2.963c2.414-1.976,3.621-4.992,3.621-9.054
		c0-4.06-1.207-7.078-3.621-9.054c-2.415-1.975-5.569-2.963-9.465-2.963h-19.259v24.033H414.297z"/>
	<path fill="#666666" d="M444.131,127.819c0.521,2.003,1.358,3.8,2.51,5.391c1.152,1.592,2.605,2.908,4.363,3.95
		c1.755,1.043,3.867,1.563,6.337,1.563c3.786,0,6.749-0.987,8.889-2.963c2.14-1.975,3.621-4.608,4.444-7.9h5.186
		c-1.099,4.828-3.115,8.56-6.05,11.193c-2.937,2.633-7.093,3.95-12.469,3.95c-3.348,0-6.242-0.591-8.683-1.77
		c-2.442-1.18-4.432-2.799-5.967-4.856c-1.537-2.057-2.676-4.444-3.416-7.16c-0.741-2.716-1.111-5.582-1.111-8.601
		c0-2.798,0.37-5.541,1.111-8.23c0.74-2.688,1.879-5.089,3.416-7.201c1.535-2.111,3.524-3.813,5.967-5.103
		c2.44-1.289,5.335-1.935,8.683-1.935c3.401,0,6.31,0.687,8.724,2.058c2.414,1.372,4.375,3.169,5.885,5.391
		c1.509,2.223,2.593,4.773,3.252,7.654c0.658,2.881,0.932,5.803,0.822,8.766H443.35C443.35,123.883,443.609,125.816,444.131,127.819
		z M469.81,111.976c-0.632-1.811-1.522-3.416-2.675-4.814c-1.152-1.399-2.551-2.523-4.197-3.375
		c-1.646-0.85-3.512-1.275-5.597-1.275c-2.14,0-4.033,0.426-5.679,1.275c-1.646,0.852-3.045,1.976-4.197,3.375
		c-1.152,1.398-2.072,3.018-2.758,4.855c-0.687,1.839-1.139,3.718-1.357,5.638h27.488
		C470.783,115.679,470.439,113.786,469.81,111.976z"/>
	<path fill="#666666" d="M487.793,99.383v9.959h0.164c1.317-3.457,3.361-6.117,6.132-7.983c2.771-1.864,6.077-2.716,9.918-2.552
		v5.186c-2.36-0.109-4.5,0.206-6.42,0.946c-1.921,0.741-3.58,1.798-4.979,3.169c-1.398,1.372-2.482,3.004-3.251,4.896
		c-0.769,1.894-1.151,3.965-1.151,6.214v22.634h-5.186V99.383H487.793z"/>
	<path fill="#666666" d="M533.388,107.654c-0.604-1.179-1.413-2.152-2.429-2.922c-1.016-0.768-2.18-1.329-3.497-1.687
		c-1.317-0.356-2.716-0.535-4.198-0.535c-1.151,0-2.318,0.123-3.497,0.37c-1.181,0.247-2.264,0.658-3.251,1.234
		c-0.988,0.576-1.783,1.331-2.387,2.264c-0.604,0.934-0.906,2.086-0.906,3.457c0,1.152,0.289,2.127,0.865,2.922
		c0.576,0.796,1.303,1.468,2.181,2.016c0.877,0.55,1.838,1.002,2.881,1.358c1.042,0.357,2.002,0.646,2.88,0.864l6.914,1.563
		c1.481,0.22,2.949,0.617,4.403,1.193c1.453,0.576,2.743,1.331,3.868,2.264c1.124,0.934,2.043,2.086,2.757,3.457
		c0.713,1.372,1.07,2.991,1.07,4.855c0,2.305-0.522,4.267-1.563,5.885c-1.043,1.619-2.375,2.936-3.992,3.95
		c-1.619,1.017-3.443,1.741-5.473,2.182c-2.031,0.438-4.033,0.658-6.009,0.658c-4.993,0-9.04-1.18-12.14-3.539
		c-3.101-2.358-4.87-6.145-5.309-11.358h5.186c0.219,3.513,1.494,6.16,3.826,7.942c2.332,1.784,5.227,2.675,8.684,2.675
		c1.262,0,2.564-0.136,3.91-0.411c1.344-0.273,2.592-0.74,3.744-1.399c1.152-0.658,2.099-1.494,2.84-2.51
		c0.74-1.015,1.111-2.264,1.111-3.745c0-1.262-0.262-2.317-0.783-3.169c-0.521-0.85-1.221-1.563-2.098-2.14
		c-0.879-0.576-1.881-1.056-3.004-1.44c-1.126-0.383-2.264-0.712-3.416-0.987l-6.666-1.481c-1.702-0.438-3.266-0.946-4.691-1.522
		c-1.428-0.576-2.676-1.289-3.746-2.14c-1.069-0.851-1.906-1.894-2.51-3.128s-0.905-2.757-0.905-4.568
		c0-2.14,0.479-3.978,1.44-5.514c0.959-1.536,2.208-2.771,3.744-3.704c1.536-0.932,3.252-1.617,5.145-2.058
		c1.893-0.438,3.771-0.658,5.638-0.658c2.14,0,4.128,0.275,5.968,0.823c1.837,0.549,3.456,1.399,4.855,2.551
		c1.398,1.152,2.51,2.58,3.333,4.28c0.823,1.701,1.288,3.704,1.399,6.008h-5.186C534.32,110.22,533.99,108.835,533.388,107.654z"/>
	<path fill="#666666" d="M575.073,99.959c2.496,1.208,4.595,2.827,6.296,4.856c1.7,2.03,2.99,4.403,3.869,7.119
		c0.877,2.716,1.316,5.61,1.316,8.683c0,3.073-0.439,5.967-1.316,8.684c-0.879,2.716-2.169,5.09-3.869,7.119
		c-1.701,2.03-3.8,3.635-6.296,4.814c-2.497,1.179-5.364,1.77-8.601,1.77c-3.238,0-6.104-0.591-8.601-1.77
		c-2.497-1.18-4.597-2.784-6.296-4.814c-1.701-2.029-2.992-4.403-3.869-7.119c-0.878-2.717-1.316-5.61-1.316-8.684
		c0-3.072,0.438-5.967,1.316-8.683c0.877-2.716,2.168-5.089,3.869-7.119c1.699-2.029,3.799-3.648,6.296-4.856
		c2.496-1.206,5.362-1.811,8.601-1.811C569.709,98.148,572.576,98.753,575.073,99.959z M559.971,104.074
		c-1.866,1.043-3.416,2.415-4.65,4.115c-1.234,1.701-2.168,3.636-2.799,5.803c-0.631,2.168-0.945,4.376-0.945,6.625
		c0,2.251,0.314,4.459,0.945,6.626c0.631,2.168,1.564,4.102,2.799,5.802c1.234,1.701,2.784,3.073,4.65,4.115
		c1.865,1.043,4.033,1.563,6.502,1.563s4.636-0.521,6.502-1.563c1.865-1.042,3.416-2.414,4.65-4.115
		c1.234-1.7,2.166-3.634,2.798-5.802c0.63-2.167,0.946-4.375,0.946-6.626c0-2.249-0.316-4.457-0.946-6.625
		c-0.632-2.167-1.563-4.102-2.798-5.803c-1.234-1.7-2.785-3.072-4.65-4.115c-1.866-1.042-4.033-1.563-6.502-1.563
		S561.836,103.032,559.971,104.074z"/>
	<path fill="#666666" d="M599.395,99.383v7.325h0.164c0.988-2.578,2.743-4.65,5.268-6.214c2.523-1.563,5.295-2.346,8.312-2.346
		c2.963,0,5.445,0.385,7.448,1.152c2.003,0.769,3.607,1.852,4.815,3.251c1.205,1.399,2.057,3.114,2.551,5.144
		c0.494,2.031,0.74,4.309,0.74,6.832v27.324h-5.185V115.35c0-1.811-0.165-3.498-0.493-5.062c-0.33-1.563-0.906-2.922-1.729-4.074
		c-0.823-1.152-1.935-2.058-3.334-2.716c-1.398-0.658-3.142-0.987-5.227-0.987c-2.086,0-3.938,0.37-5.555,1.111
		c-1.619,0.74-2.991,1.756-4.115,3.045c-1.125,1.29-2.004,2.826-2.634,4.609c-0.632,1.783-0.975,3.718-1.028,5.802v24.773h-5.186
		V99.383H599.395z"/>
	<path fill="#666666" d="M639.557,105.968c0.877-1.812,2.07-3.293,3.58-4.445c1.509-1.151,3.278-2.002,5.309-2.551
		c2.029-0.548,4.28-0.823,6.75-0.823c1.863,0,3.73,0.179,5.596,0.535c1.865,0.357,3.539,1.028,5.021,2.017
		c1.481,0.987,2.688,2.374,3.622,4.156c0.932,1.783,1.398,4.103,1.398,6.954v22.552c0,2.086,1.015,3.127,3.045,3.127
		c0.604,0,1.152-0.109,1.646-0.329v4.362c-0.604,0.11-1.139,0.192-1.605,0.247s-1.057,0.082-1.77,0.082
		c-1.316,0-2.373-0.178-3.168-0.535c-0.796-0.356-1.414-0.864-1.852-1.522c-0.439-0.658-0.729-1.44-0.865-2.346
		s-0.205-1.905-0.205-3.004h-0.164c-0.934,1.372-1.881,2.593-2.84,3.662c-0.961,1.07-2.031,1.963-3.21,2.675
		c-1.181,0.714-2.524,1.262-4.032,1.646c-1.51,0.383-3.307,0.576-5.392,0.576c-1.976,0-3.827-0.234-5.556-0.699
		c-1.729-0.466-3.238-1.207-4.526-2.223c-1.29-1.015-2.305-2.305-3.046-3.868c-0.74-1.563-1.11-3.416-1.11-5.556
		c0-2.963,0.658-5.28,1.976-6.954c1.316-1.674,3.058-2.949,5.227-3.827c2.166-0.877,4.608-1.495,7.324-1.853
		c2.717-0.355,5.473-0.699,8.271-1.028c1.098-0.109,2.058-0.247,2.881-0.412c0.822-0.164,1.508-0.452,2.058-0.863
		c0.548-0.412,0.974-0.974,1.275-1.688c0.302-0.713,0.452-1.646,0.452-2.799c0-1.755-0.287-3.195-0.863-4.32
		c-0.576-1.124-1.373-2.017-2.387-2.675c-1.016-0.659-2.195-1.111-3.539-1.358c-1.346-0.247-2.785-0.37-4.321-0.37
		c-3.292,0-5.981,0.781-8.065,2.346c-2.086,1.563-3.184,4.074-3.293,7.53h-5.185C638.158,109.918,638.679,107.778,639.557,105.968z
		 M665.482,118.642c-0.329,0.604-0.961,1.043-1.893,1.317c-0.934,0.275-1.757,0.467-2.469,0.576
		c-2.195,0.385-4.459,0.728-6.791,1.028c-2.332,0.303-4.458,0.755-6.378,1.358c-1.921,0.604-3.498,1.469-4.733,2.593
		c-1.234,1.125-1.852,2.729-1.852,4.814c0,1.316,0.26,2.483,0.782,3.498c0.521,1.016,1.221,1.893,2.099,2.634
		c0.877,0.74,1.893,1.304,3.045,1.687c1.152,0.385,2.332,0.576,3.539,0.576c1.976,0,3.869-0.301,5.68-0.905
		c1.811-0.603,3.387-1.481,4.732-2.634c1.344-1.151,2.414-2.551,3.209-4.197c0.795-1.646,1.193-3.511,1.193-5.597v-6.749H665.482z"
		/>
	<path fill="#666666" d="M705.646,107.654c-0.604-1.179-1.414-2.152-2.428-2.922c-1.016-0.768-2.182-1.329-3.498-1.687
		c-1.316-0.356-2.717-0.535-4.197-0.535c-1.152,0-2.318,0.123-3.498,0.37c-1.182,0.247-2.264,0.658-3.251,1.234
		s-1.784,1.331-2.387,2.264c-0.604,0.934-0.905,2.086-0.905,3.457c0,1.152,0.287,2.127,0.863,2.922
		c0.576,0.796,1.303,1.468,2.182,2.016c0.877,0.55,1.838,1.002,2.881,1.358c1.041,0.357,2.002,0.646,2.881,0.864l6.912,1.563
		c1.482,0.22,2.949,0.617,4.404,1.193c1.453,0.576,2.742,1.331,3.867,2.264c1.125,0.934,2.045,2.086,2.758,3.457
		c0.713,1.372,1.07,2.991,1.07,4.855c0,2.305-0.521,4.267-1.564,5.885c-1.043,1.619-2.373,2.936-3.99,3.95
		c-1.619,1.017-3.445,1.741-5.475,2.182c-2.029,0.438-4.033,0.658-6.008,0.658c-4.994,0-9.041-1.18-12.14-3.539
		c-3.101-2.358-4.87-6.145-5.309-11.358H684c0.219,3.513,1.495,6.16,3.828,7.942c2.331,1.784,5.227,2.675,8.684,2.675
		c1.26,0,2.562-0.136,3.908-0.411c1.344-0.273,2.594-0.74,3.744-1.399c1.152-0.658,2.1-1.494,2.84-2.51
		c0.742-1.015,1.111-2.264,1.111-3.745c0-1.262-0.262-2.317-0.781-3.169c-0.521-0.85-1.223-1.563-2.1-2.14s-1.879-1.056-3.004-1.44
		c-1.125-0.383-2.264-0.712-3.416-0.987l-6.666-1.481c-1.701-0.438-3.265-0.946-4.691-1.522c-1.428-0.576-2.674-1.289-3.744-2.14
		s-1.907-1.894-2.511-3.128c-0.604-1.234-0.905-2.757-0.905-4.568c0-2.14,0.48-3.978,1.44-5.514s2.208-2.771,3.745-3.704
		c1.535-0.932,3.25-1.617,5.145-2.058c1.893-0.438,3.771-0.658,5.637-0.658c2.141,0,4.129,0.275,5.967,0.823
		c1.838,0.549,3.457,1.399,4.855,2.551c1.4,1.152,2.512,2.58,3.334,4.28c0.822,1.701,1.289,3.704,1.398,6.008h-5.184
		C706.578,110.22,706.25,108.835,705.646,107.654z"/>
</g>
<path d="M164.49,58.261c0,3.129,0.426,5.027,1.278,5.703c0.858,0.676,3.263,1.015,7.216,1.015h3.645
	c24.986,0,37.479-8.67,37.479-26.014c0-18.483-11.232-27.722-33.703-27.722c-6.025,0-10.068,0.571-12.14,1.709
	c-2.519,1.419-3.774,4.369-3.774,8.848L164.49,58.261L164.49,58.261z M213.512,66.464c24.127,3.982,36.182,16.47,36.182,37.458
	c0,12.021-4.777,21.684-14.339,28.973c-9.555,7.297-21.966,10.938-37.229,10.938c-5.559,0-47.756,0.207-58.863,0.207V3.439
	c7.402,0,25.257,0.707,34.843,0.595c51.519-0.595,66.488,11.205,66.488,33.619C240.593,51.667,231.564,61.271,213.512,66.464
	 M167.99,71.968c-2.336,0-3.5,0.928-3.5,2.775v44.8c0,10.952,7.447,16.424,22.349,16.424c11.845,0,20.862-3.303,27.062-9.919
	c5.473-5.829,8.209-13.616,8.209-23.36c0-9.527-3.186-17.029-9.557-22.506c-6.376-5.478-15.529-8.214-27.464-8.214H167.99z"/>
<path d="M308.224,53.913c6.46,0,12.624,0.821,18.483,2.471c7.818,2.228,11.729,5.367,11.729,9.435
	c0,10.539-2.341,15.813-7.012,15.813c-2.291,0-4.624-1.909-7.004-5.724c-0.256-0.443-0.682-1.203-1.271-2.285
	c-5.69-9.785-11.551-14.678-17.586-14.678c-9.169,0-16.351,4.932-21.526,14.797c-3.906,7.523-5.863,15.302-5.863,23.328
	c0,9.988,2.592,18.492,7.771,25.51c6.455,8.721,15.884,13.087,28.287,13.087c3.565,0,8.448-1.356,14.646-4.081
	c6.201-2.718,8.879-4.08,8.029-4.08c2.293,0,3.438,0.854,3.438,2.553c0,4.353-4.798,8.293-14.401,11.82
	c-8.243,3.091-15.635,4.635-22.177,4.635c-15.807,0-28.123-4.832-36.961-14.504c-7.731-8.398-11.6-18.762-11.6-31.085
	c0-13.019,4.375-23.853,13.133-32.513C278.017,58.745,291.314,53.913,308.224,53.913"/>
<path d="M347.683,144.241h20.783l-0.14-84.745c0,0-3.758-0.081-9.929-0.562c-4.516-0.354-10.707-0.691-10.707-0.691L347.683,144.241
	z"/>
<path fill="#F7323F" d="M0.98,124.915c3.625-10.776,12.884-17.838,12.884-17.838s7.41-5.427,12.261-8.726
	c4.899-3.338,12.433-8.104,12.433-8.104s15.886-9.438,19.567-11.969l0.055-0.045c2.285,0.428,4.736,0.764,7.185,1
	c0,0,6.755,0.334,8.533-3.483c1.897-3.808-3.673-4.765-3.673-4.765l-1.286-0.236c2.288-1.674,4.685-3.53,7.024-5.581
	c7.523-6.438,13.656-20.936,13.656-20.936L95.47,30.55c0,0,4.243-8.4,12.548-6.968c10.812,1.865,10.146,13.545,10.146,13.545
	c-2.563,18.6-17.17,29.903-22.302,33.096c-8.136,5.054-38.854,22.839-38.854,22.839s-16.776,10.729-27.424,21.791
	c-10.709,10.972-11.992,15.736-15.111,21.698c-3.172,6.005-3.512,7.105-7.585,7.438h-0.22C2.655,143.991-2.084,135.739,0.98,124.915
	"/>
<path fill="#00953A" d="M103.588,128.934c-3.929-3.023-2.737-8.33-2.737-8.33s0.239-4.795-0.793-10.302
	c-1.043-5.504-2.464-8.593-2.464-8.593s-0.627-3.105-5.245-5.876c-4.601-2.716-9.105-3.472-10.128-6.952
	c-1.025-3.477,1.246-6.083,4.764-7.295c3.468-1.2,9.992-1.9,16.49,3.04c6.505,4.94,9.838,16.437,9.838,16.437
	s3.727,9.51,3.962,13.806c0,0,1.89,6.138-1.843,10.809c0,0-2.914,3.429-6.506,4.333
	C107.195,130.443,105.369,130.287,103.588,128.934"/>
<path fill="#0071CE" d="M70.808,83.805c-1.483-0.585-2.942-1.209-4.364-1.851c-11.574-5.216-16.881-9.605-16.881-9.605
	S32.986,60.939,29.139,43.2c-4.182-14.022,4.768-34.095,4.768-34.095s3.019-13.007,17.539-9.507
	c14.49,3.429,8.043,17.648,8.043,17.648c-1.996,4.232-6.133,26.36-6.133,26.36c-1.42,21.575,15.745,26.61,15.745,26.61l9.862,4.611
	c0,0,5.848,2.85,2.453,7.103c-2.82,3.643-8.57,2.418-10.176,1.989C70.998,83.857,70.808,83.805,70.808,83.805"/>
<path fill="#FFD700" d="M26.805,140.959c0,0-2.899-2.277,0.473-9.979c4.511-10.407,14.986-19.028,14.986-19.028
	s24.774-15.545,30.922-17.695c6.188-2.143,9.951,0.362,9.951,0.362s9.35,6.385,9.871,20.259c0.517,13.869-9.117,18.933-9.117,18.933
	s-9.015,6.709-31.866,8.752c-11.152,1.99-17.39,1.904-20.867,1.179C26.862,142.843,26.805,140.959,26.805,140.959"/>
<path d="M347.366,41.821c0-6.297,4.505-11.402,10.061-11.402c5.56,0,10.063,5.105,10.063,11.402c0,6.299-4.505,11.404-10.063,11.404
	C351.871,53.225,347.366,48.12,347.366,41.821"/>
</svg>
